<svg width="25" height="25" viewBox="0 0 25 25" fill="none" xmlns="http://www.w3.org/2000/svg">
<g filter="url(#filter0_f_36_133)">
<circle cx="12.4698" cy="12.4698" r="11.4698" fill="#D4CFF5"/>
</g>
<g filter="url(#filter1_i_36_133)">
<path d="M10.3377 6.72077C10.4718 5.84143 11.6011 5.56162 12.1302 6.27665L13.6405 8.31776C13.8636 8.6192 14.2365 8.77052 14.6066 8.7097L17.1121 8.29793C17.9898 8.15368 18.6049 9.14124 18.0884 9.8654L16.6139 11.9326C16.3961 12.2378 16.3675 12.6393 16.5396 12.9724L17.7055 15.2281C18.1139 16.0183 17.3648 16.9084 16.5165 16.641L14.0948 15.8774C13.7372 15.7647 13.3465 15.8615 13.0829 16.1282L11.2979 17.934C10.6726 18.5666 9.59452 18.1292 9.58676 17.2397L9.5646 14.7007C9.56133 14.3257 9.34855 13.9841 9.01345 13.8158L6.74438 12.6762C5.9495 12.277 6.03236 11.1165 6.87589 10.8342L9.28383 10.0286C9.63944 9.90957 9.8986 9.60164 9.95511 9.23093L10.3377 6.72077Z" fill="#FF4141"/>
</g>
<defs>
<filter id="filter0_f_36_133" x="0.5" y="0.5" width="23.9396" height="23.9396" filterUnits="userSpaceOnUse" color-interpolation-filters="sRGB">
<feFlood flood-opacity="0" result="BackgroundImageFix"/>
<feBlend mode="normal" in="SourceGraphic" in2="BackgroundImageFix" result="shape"/>
<feGaussianBlur stdDeviation="0.25" result="effect1_foregroundBlur_36_133"/>
</filter>
<filter id="filter1_i_36_133" x="6.19311" y="5.87056" width="12.0841" height="12.3624" filterUnits="userSpaceOnUse" color-interpolation-filters="sRGB">
<feFlood flood-opacity="0" result="BackgroundImageFix"/>
<feBlend mode="normal" in="SourceGraphic" in2="BackgroundImageFix" result="shape"/>
<feColorMatrix in="SourceAlpha" type="matrix" values="0 0 0 0 0 0 0 0 0 0 0 0 0 0 0 0 0 0 127 0" result="hardAlpha"/>
<feOffset dy="-1"/>
<feComposite in2="hardAlpha" operator="arithmetic" k2="-1" k3="1"/>
<feColorMatrix type="matrix" values="0 0 0 0 0 0 0 0 0 0 0 0 0 0 0 0 0 0 0.55 0"/>
<feBlend mode="normal" in2="shape" result="effect1_innerShadow_36_133"/>
</filter>
</defs>
</svg>
